<svg xmlns="http://www.w3.org/2000/svg" width="50" height="50" viewBox="0 0 50 50">
    <g fill="none" fill-rule="evenodd">
        <path fill="#000" d="M24.348 27.512a2.41 2.41 0 0 0 1.71.709 2.418 2.418 0 0 0 1.71-4.13L16.702 13.024a2.418 2.418 0 1 0-3.42 3.42l11.067 11.068z"/>
        <path fill="#23A7F1" d="M24.788 0a2.42 2.42 0 0 0-2.42 2.42v7.79c0 .023-.006.045-.006.068 0 .648.252 1.257.71 1.716a2.429 2.429 0 0 0 3.431 0c.458-.459.71-1.068.71-1.716 0-.022-.005-.043-.006-.064v-5.23c9.1 1.106 16.323 8.363 17.389 17.474h-5.142c-.023 0-.045-.007-.068-.007a2.41 2.41 0 0 0-1.715.71 2.43 2.43 0 0 0 0 3.431c.458.458 1.067.71 1.715.71.022 0 .043-.005.064-.006h5.123c-1.138 9.027-8.327 16.19-17.366 17.288V39.54c0-.022.007-.043.007-.064 0-.648-.253-1.258-.711-1.716a2.43 2.43 0 0 0-3.43 0 2.41 2.41 0 0 0-.711 1.716c0 .023.006.044.007.068v5.04c-9.04-1.098-16.228-8.26-17.367-17.288h5.123c.022 0 .042.007.064.007.648 0 1.258-.253 1.716-.71a2.428 2.428 0 0 0-1.716-4.142c-.023 0-.045.007-.068.007H4.977c.525-4.556 2.58-8.752 5.928-11.997a2.419 2.419 0 1 0-3.368-3.474C2.677 11.698 0 18.02 0 24.787c0 13.668 11.12 24.788 24.788 24.788 13.668 0 24.787-11.12 24.787-24.788C49.575 11.12 38.455 0 24.788 0"/>
    </g>
</svg>
