<svg xmlns="http://www.w3.org/2000/svg" xmlns:xlink="http://www.w3.org/1999/xlink" width="50" height="50" viewBox="0 0 50 50">
    <defs>
        <path id="a" d="M0 0h50v50H0z"/>
    </defs>
    <g fill="none" fill-rule="evenodd">
        <g>
            <mask id="b" fill="#fff">
                <use xlink:href="#a"/>
            </mask>
            <path fill="#23A7F1" d="M47.094 19.95a2.494 2.494 0 0 0-2.206 2.75c.082.755.128 1.522.128 2.302 0 11.036-8.98 20.016-20.014 20.016-11.038 0-20.017-8.98-20.017-20.016 0-5.348 2.08-10.374 5.861-14.156a19.87 19.87 0 0 1 14.151-5.861H25c1.57 0 3.13.182 4.638.538a20.42 20.42 0 0 1 2.183.65 2.49 2.49 0 0 0 3.19-1.497 2.49 2.49 0 0 0-1.498-3.19A25.015 25.015 0 0 0 30.782.67 25.176 25.176 0 0 0 25 0h-.003C18.318 0 12.043 2.6 7.32 7.322 2.597 12.043 0 18.32 0 25c0 13.785 11.216 25 25.002 25C38.785 50 50 38.785 50 25c0-.964-.051-1.912-.157-2.843a2.481 2.481 0 0 0-2.748-2.206" mask="url(#b)"/>
        </g>
        <path fill="#000" d="M32.71 24.845c0 4.165-3.386 7.555-7.553 7.555S17.6 29.01 17.6 24.845c0-4.164 3.387-7.554 7.554-7.554 1.381 0 2.66.4 3.776 1.05l-5.473 4.69a2.487 2.487 0 0 0-.269 3.514c.488.574 1.189.87 1.89.87.572 0 1.15-.197 1.619-.6l5.48-4.699a7.48 7.48 0 0 1 .534 2.73m14.796-17.37h-2.491V4.986a2.492 2.492 0 1 0-4.985 0v3.84l-7.205 6.176c-2.129-1.662-4.768-2.694-7.672-2.694-6.913 0-12.538 5.622-12.538 12.538s5.625 12.539 12.538 12.539c6.914 0 12.539-5.625 12.539-12.539 0-2.208-.623-4.254-1.627-6.059l7.376-6.324h4.065A2.491 2.491 0 0 0 50 9.969a2.491 2.491 0 0 0-2.492-2.492"/>
    </g>
</svg>
