<svg xmlns="http://www.w3.org/2000/svg" width="50" height="50" viewBox="0 0 50 50">
    <g fill="none" fill-rule="evenodd">
        <path fill="#23A7F1" d="M24.788 4.839c-11 0-19.949 8.949-19.949 19.948 0 11 8.949 19.949 19.949 19.949 11 0 19.948-8.949 19.948-19.949 0-11-8.948-19.948-19.948-19.948m0 44.736C11.12 49.575 0 38.455 0 24.787 0 11.12 11.12 0 24.788 0c13.668 0 24.787 11.12 24.787 24.787 0 13.668-11.12 24.788-24.787 24.788"/>
        <path fill="#000" d="M14.99 36.945a2.42 2.42 0 0 1-1.71-4.13l19.792-19.791a2.418 2.418 0 1 1 3.42 3.42l-19.79 19.792a2.411 2.411 0 0 1-1.711.71M31.853 27.375a4.376 4.376 0 0 0-3.112 1.288 4.375 4.375 0 0 0-1.29 3.114c0 1.175.459 2.281 1.29 3.112a4.372 4.372 0 0 0 3.112 1.289c1.176 0 2.28-.458 3.113-1.289a4.409 4.409 0 0 0 0-6.225 4.378 4.378 0 0 0-3.113-1.289M17.874 22.2c1.176 0 2.28-.459 3.112-1.29a4.374 4.374 0 0 0 1.29-3.112 4.372 4.372 0 0 0-1.29-3.113 4.373 4.373 0 0 0-3.112-1.288 4.374 4.374 0 0 0-3.113 1.288 4.372 4.372 0 0 0-1.289 3.113c0 1.176.458 2.282 1.289 3.113a4.376 4.376 0 0 0 3.113 1.288"/>
    </g>
</svg>
